<svg xmlns="http://www.w3.org/2000/svg" width="390" height="844" viewBox="0 0 390 844">
  <defs>
    <linearGradient id="hero" x1="0" y1="0" x2="1" y2="1">
      <stop offset="0" stop-color="#1C2431"/>
      <stop offset="1" stop-color="#101621"/>
    </linearGradient>
    <filter id="shadow" x="-20%" y="-20%" width="140%" height="140%">
      <feDropShadow dx="0" dy="18" stdDeviation="18" flood-color="#000" flood-opacity=".35"/>
    </filter>
  </defs>
  <rect width="390" height="844" fill="#070A0F"/>
  <text x="22" y="38" fill="#3DDC97" font-family="JetBrains Mono, Consolas" font-size="12" font-weight="700" letter-spacing="1.5">PODCASTS</text>
  <text x="22" y="76" fill="#F7F9FC" font-family="Georgia, serif" font-size="33" font-weight="700">Podcasts</text>
  <rect x="20" y="100" width="350" height="226" rx="26" fill="url(#hero)" stroke="rgba(255,255,255,.10)" filter="url(#shadow)"/>
  <circle cx="286" cy="185" r="70" fill="#7C6CFF" opacity=".28"/>
  <ellipse cx="286" cy="185" rx="38" ry="70" fill="none" stroke="#3DDC97" stroke-width="1.5" opacity=".8"/>
  <line x1="218" y1="185" x2="354" y2="185" stroke="rgba(255,255,255,.28)"/>
  <circle cx="250" cy="154" r="5" fill="#3DDC97"/>
  <circle cx="315" cy="181" r="5" fill="#FFB86B"/>
  <circle cx="281" cy="224" r="5" fill="#7C6CFF"/>
  <text x="42" y="146" fill="#A6B0C2" font-family="Inter, Arial" font-size="13" font-weight="600">Podcast-first browsing</text>
  <foreignObject x="42" y="158" width="210" height="88">
    <div xmlns="http://www.w3.org/1999/xhtml" style="color:#F7F9FC;font-family:Georgia,serif;font-size:31px;font-weight:700;line-height:36px">Shows and episodes.</div>
  </foreignObject>
  <foreignObject x="42" y="252" width="245" height="45">
    <div xmlns="http://www.w3.org/1999/xhtml" style="color:#A6B0C2;font-family:Inter,Arial;font-size:13px;line-height:19px">Search, subscribe, resume episodes, and open a show detail view.</div>
  </foreignObject>
      <rect x="22" y="360" width="346" height="74" rx="18" fill="#141A24" stroke="rgba(255,255,255,.09)"/>
    <rect x="38" y="374" width="46" height="46" rx="13" fill="#242D3B"/>
    <circle cx="61" cy="397" r="11" fill="#3DDC97" opacity=".9"/>
    <text x="100" y="390" fill="#F7F9FC" font-family="Inter, Arial" font-size="15" font-weight="700">Continue Listening</text>
    <text x="100" y="411" fill="#A6B0C2" font-family="Inter, Arial" font-size="12">Large artwork cards with progress</text>
    <circle cx="340" cy="397" r="16" fill="#3DDC97"/>
    <polygon points="335,389 335,405 347,397" fill="#000"/>    <rect x="22" y="446" width="346" height="74" rx="18" fill="#141A24" stroke="rgba(255,255,255,.09)"/>
    <rect x="38" y="460" width="46" height="46" rx="13" fill="#242D3B"/>
    <circle cx="61" cy="483" r="11" fill="#3DDC97" opacity=".9"/>
    <text x="100" y="476" fill="#F7F9FC" font-family="Inter, Arial" font-size="15" font-weight="700">Subscriptions</text>
    <text x="100" y="497" fill="#A6B0C2" font-family="Inter, Arial" font-size="12">Saved RSS feeds and providers</text>
    <circle cx="340" cy="483" r="16" fill="#3DDC97"/>
    <polygon points="335,475 335,491 347,483" fill="#000"/>    <rect x="22" y="532" width="346" height="74" rx="18" fill="#141A24" stroke="rgba(255,255,255,.09)"/>
    <rect x="38" y="546" width="46" height="46" rx="13" fill="#242D3B"/>
    <circle cx="61" cy="569" r="11" fill="#3DDC97" opacity=".9"/>
    <text x="100" y="562" fill="#F7F9FC" font-family="Inter, Arial" font-size="15" font-weight="700">Episode Detail</text>
    <text x="100" y="583" fill="#A6B0C2" font-family="Inter, Arial" font-size="12">Download, play, subscribe</text>
    <circle cx="340" cy="569" r="16" fill="#3DDC97"/>
    <polygon points="335,561 335,577 347,569" fill="#000"/>
  <rect x="16" y="694" width="358" height="64" rx="19" fill="#1C2431" stroke="rgba(255,255,255,.09)"/>
  <rect x="28" y="703" width="46" height="46" rx="13" fill="#7C6CFF"/>
  <circle cx="51" cy="726" r="11" fill="#F7F9FC" opacity=".94"/>
  <text x="88" y="723" fill="#F7F9FC" font-family="Inter, Arial" font-size="14" font-weight="700">Mini player</text>
  <text x="88" y="743" fill="#A6B0C2" font-family="Inter, Arial" font-size="12">Always available while exploring</text>
  <circle cx="344" cy="726" r="19" fill="#3DDC97"/>
  <polygon points="339,717 339,735 352,726" fill="#000"/>
  <rect x="0" y="758" width="390" height="86" fill="#070A0F" stroke="rgba(255,255,255,.08)"/>
      <rect x="28" y="766" width="50" height="34" rx="17" fill="transparent"/>
    <circle cx="53" cy="783" r="8" fill="#A6B0C2"/>
    <text x="53" y="822" text-anchor="middle" fill="#697386" font-family="Inter, Arial" font-size="11" font-weight="600">Explore</text>    <rect x="115" y="766" width="50" height="34" rx="17" fill="transparent"/>
    <circle cx="140" cy="783" r="8" fill="#A6B0C2"/>
    <text x="140" y="822" text-anchor="middle" fill="#697386" font-family="Inter, Arial" font-size="11" font-weight="600">Player</text>    <rect x="202" y="766" width="50" height="34" rx="17" fill="transparent"/>
    <circle cx="227" cy="783" r="8" fill="#A6B0C2"/>
    <text x="227" y="822" text-anchor="middle" fill="#697386" font-family="Inter, Arial" font-size="11" font-weight="600">Library</text>    <rect x="289" y="766" width="50" height="34" rx="17" fill="#3DDC97"/>
    <circle cx="314" cy="783" r="8" fill="#000000"/>
    <text x="314" y="822" text-anchor="middle" fill="#F7F9FC" font-family="Inter, Arial" font-size="11" font-weight="600">Podcasts</text>
</svg>
